PathFileType	4	(X/Y/Z)	15_coords_data.trc
DataRate	CameraRate	NumFrames	NumMarkers	Units	OrigDataRate	OrigDataStartFrame	OrigNumFrames
30.0	30.0	6	21	m	30.0	1	75
Frame#	Time	THUMB_TIP	THUMB_IP	THUMB_MCP	THUMB_CMC	INDEX_TIP	INDEX_DIP	INDEX_PIP	INDEX_MCP	MIDDLE_TIP	MIDDLE_DIP	MIDDLE_PIP	MIDDLE_MCP	RING_TIP	RING_DIP	RING_PIP	RING_MCP	PINKY_TIP	PINKY_DIP	PINKY_PIP	PINKY_MCP	WRIST
X1	Y1	Z1	X2	Y2	Z2	X3	Y3	Z3	X4	Y4	Z4	X5	Y5	Z5	X6	Y6	Z6	X7	Y7	Z7	X8	Y8	Z8	X9	Y9	Z9	X10	Y10	Z10	X11	Y11	Z11	X12	Y12	Z12	X13	Y13	Z13	X14	Y14	Z14	X15	Y15	Z15	X16	Y16	Z16	X17	Y17	Z17	X18	Y18	Z18	X19	Y19	Z19	X20	Y20	Z20	X21	Y21	Z21
0	0.0	-0.011987400054931641	-0.04145289993286133	0.9792919921875	-0.020128799438476563	-0.0243843994140625	0.9681430053710938	-0.03097570037841797	-0.004407090187072754	0.9562570190429688	-0.029980600357055662	0.027226699829101562	0.9510460205078125	-0.0035457499027252187	-0.09129499816894532	0.9266589965820312	-0.0028779900074005116	-0.07516190338134765	0.91502001953125	-0.005329010009765625	-0.05398369979858399	0.9075540161132812	-0.01493809986114502	-0.01719879913330078	0.9172999877929687	-0.015559100151062011	-0.02040559959411621	0.9562789916992187	-0.0058577899932861326	-0.037928001403808594	0.95727001953125	0.01133769989013672	-0.047652099609375	0.9436339721679687	0.009160659790039062	-0.012910099983215332	0.9190260009765625	-0.006702509880065918	-0.011206999778747558	0.9672559814453126	0.002927320003509521	-0.025168899536132813	0.9670040283203125	0.022265699386596678	-0.033576000213623045	0.9556829833984375	0.02499049949645996	-0.003942450046539306	0.932833984375	0.0721011962890625	-0.03929719924926758	0.9528690185546875	0.05850949859619141	-0.025856000900268555	0.9526290283203125	0.04555009841918945	-0.01419849967956543	0.9521209716796875	0.02708449935913086	0.00336991000175476	0.95102099609375	-0.016429399490356444	0.062527099609375	0.95072998046875
1	0.03333333333333333	-0.011397500038146973	-0.04142300033569336	0.9789819946289062	-0.019933799743652343	-0.024393499374389647	0.9676740112304687	-0.02998710060119629	-0.005555860042572022	0.9557410278320313	-0.02956649971008301	0.02701219940185547	0.951010009765625	-0.0028377199172973633	-0.0915363998413086	0.9261920166015625	-0.002239370107650757	-0.07534700012207031	0.9146790161132813	-0.004770770072937012	-0.054105201721191404	0.9073109741210937	-0.014384099960327149	-0.0176835994720459	0.917552001953125	-0.014951899528503418	-0.020639999389648438	0.9560460205078125	-0.005622560024261474	-0.03796170043945313	0.95722998046875	0.011817399978637694	-0.047757801055908204	0.9435469970703125	0.009551679611206055	-0.013457799911499023	0.9181859741210937	-0.006757619857788086	-0.011155799865722656	0.9668380126953126	0.003344890117645263	-0.02566710090637207	0.9665689697265625	0.02273240089416504	-0.03353530120849609	0.9555750122070312	0.02538159942626953	-0.003697570085525512	0.9333070068359375	0.072431396484375	-0.0393468017578125	0.9530859985351563	0.0588218994140625	-0.025862800598144532	0.952802978515625	0.04587810134887695	-0.014152099609375	0.952125	0.027342300415039062	0.003789619922637939	0.9505130004882812	-0.016174999237060547	0.062325901031494144	0.9503619995117187
2	0.06666666666666667	-0.0115378999710083	-0.04215039825439453	0.9787520141601562	-0.019221900939941406	-0.024829099655151367	0.9678079833984375	-0.030299699783325196	-0.005883639812469483	0.95547998046875	-0.029680200576782226	0.02677910041809082	0.95085498046875	-0.003326280117034912	-0.09231960296630859	0.925614013671875	-0.002835299968719482	-0.07597979736328125	0.914239013671875	-0.0053388199806213375	-0.054672000885009765	0.9070460205078125	-0.01466569995880127	-0.018216400146484374	0.9163560180664062	-0.014531700134277344	-0.019759300231933594	0.9550490112304687	-0.005708620071411132	-0.038724700927734376	0.9570289916992187	0.011522100448608399	-0.04839099884033203	0.9431259765625	0.009430029869079589	-0.013879400253295898	0.9185170288085938	-0.00560600996017456	-0.010511599540710449	0.9654110107421875	0.0031052100658416747	-0.02587929916381836	0.96639501953125	0.02230579948425293	-0.034261001586914065	0.955426025390625	0.025079999923706055	-0.004545519828796387	0.93256298828125	0.07171279907226563	-0.04034000015258789	0.95360400390625	0.05833250045776367	-0.026794300079345704	0.9531400146484375	0.04547949981689453	-0.014935700416564942	0.952041015625	0.027340999603271486	0.002928420066833496	0.9498170166015625	-0.0164596004486084	0.061952400207519534	0.9505339965820313
3	0.1	-0.012028800010681153	-0.04292520141601563	0.978468994140625	-0.019479400634765626	-0.025595300674438475	0.9668419799804687	-0.03055109977722168	-0.006371359825134277	0.9558839721679687	-0.02990369987487793	0.025606000900268554	0.9507890014648438	-0.004236949920654297	-0.09366539764404297	0.9258670043945313	-0.003921839952468872	-0.07709500122070312	0.9146439819335938	-0.006364649772644043	-0.05577980041503906	0.9075419921875	-0.015078100204467773	-0.01902009963989258	0.9171589965820313	-0.014941100120544434	-0.021634099960327148	0.9551929931640625	-0.006313779830932617	-0.0396515998840332	0.9569719848632813	0.011189000129699707	-0.04930229949951172	0.943177978515625	0.009013919830322266	-0.014430899620056153	0.9187459716796875	-0.00572081995010376	-0.012299200057983399	0.9649550170898438	0.0030446701049804677	-0.027408199310302736	0.9661480102539063	0.021963199615478515	-0.03515340042114258	0.9556699829101563	0.024727500915527344	-0.005542220115661621	0.9324840087890625	0.07125749969482421	-0.041314300537109376	0.9536300048828125	0.057899799346923825	-0.02764310073852539	0.953094970703125	0.04518239974975586	-0.015878600120544435	0.9522000122070312	0.026928899765014648	0.0021635301113128664	0.9502570190429688	-0.016702899932861327	0.06123609924316406	0.9501669921875
4	0.13333333333333333	-0.012595299720764161	-0.04358660125732422	0.9782969970703125	-0.018681900024414062	-0.026237499237060546	0.9674290161132812	-0.029707799911499022	-0.00728911018371582	0.9549390258789062	-0.029708200454711915	0.02531949996948242	0.9512410278320312	-0.003765680074691772	-0.0950990982055664	0.9272319946289063	-0.0037112400531768798	-0.07838829803466797	0.9161699829101563	-0.0063453798294067386	-0.05713729858398438	0.9090869750976562	-0.014839900016784669	-0.020288000106811522	0.918031005859375	-0.014788999557495117	-0.022422300338745118	0.9558599853515625	-0.006189839839935303	-0.04025979995727539	0.9575889892578126	0.011461000442504882	-0.04988050079345703	0.9442860107421875	0.009145649909973144	-0.015565699577331542	0.9193629760742188	-0.007049260139465332	-0.013296799659729004	0.9683189697265625	0.0030822300910949697	-0.027243499755859376	0.9668469848632812	0.022160299301147462	-0.03555920028686523	0.9564869995117188	0.024904499053955077	-0.006392129898071289	0.9329349975585938	0.07152400207519531	-0.04180039978027344	0.9550430297851562	0.058157100677490234	-0.028173500061035157	0.954458984375	0.04537269973754883	-0.016410600662231444	0.9530349731445312	0.027080799102783205	0.001655500054359436	0.9508309936523438	-0.01646739959716797	0.06070769882202148	0.9503510131835937
5	0.16666666666666666	-0.010732799530029298	-0.04341550064086914	0.9794710083007813	-0.01750189971923828	-0.027312000274658202	0.9673729858398438	-0.029798999786376953	-0.006903649806976319	0.955802001953125	-0.02938450050354004	0.024214500427246093	0.9511090087890625	-0.0020878200531005858	-0.09594270324707031	0.926885009765625	-0.002495039939880371	-0.07899310302734375	0.9162160034179687	-0.005440430164337158	-0.05748469924926758	0.9093309936523437	-0.01398169994354248	-0.020455799102783202	0.9179199829101562	-0.013316499710083007	-0.02082699966430664	0.9550180053710937	-0.004858930110931397	-0.04048160171508789	0.9575369873046875	0.012517800331115722	-0.050008800506591795	0.9445709838867188	0.010124300003051758	-0.016068700790405274	0.9191110229492188	-0.004255430221557617	-0.013192700386047364	0.9647219848632812	0.004161680221557617	-0.02759630012512207	0.9667210083007812	0.023268999099731444	-0.0356973991394043	0.956489990234375	0.025744800567626954	-0.0065071101188659665	0.9328599853515624	0.07291230010986328	-0.04126219940185547	0.9549829711914063	0.05923580169677734	-0.027807600021362306	0.9542930297851563	0.04633200073242188	-0.016250699996948243	0.9530590209960937	0.027797300338745116	0.001579229950904846	0.9510540161132812	-0.015940600395202637	0.060245399475097654	0.9502470092773437
